# xmcd
#
# Track frame offsets:
# 171
# 14151
# 28608
# 49227
# 70407
# 85683
# 101037
# 118377
# 135579
# 156408
# 180078
# 200052
# 220959
# 240606
# 261270
# 283659
# 305526
# 327633
# 349239
# 367191
#
# Disc length: 4902 seconds
#
#
# Revision: 0
# Processed by: cddbd v1.5.2PL0 Copyright (c) Steve Scherf et al.
# Submitted via: FreeRIP 2.96 
#
DISCID=46132414
DTITLE=Ebert, Sabine - Das Geheimnis Der Hebamme
DYEAR=2007
DGENRE=Speech
TTITLE0=63 Das Geheimnis der Hebamme
TTITLE1=64 Das Geheimnis der Hebamme
TTITLE2=65 Das Geheimnis der Hebamme
TTITLE3=66 Das Geheimnis der Hebamme
TTITLE4=67 Das Geheimnis der Hebamme
TTITLE5=68 Das Geheimnis der Hebamme
TTITLE6=69 Das Geheimnis der Hebamme
TTITLE7=70 Das Geheimnis der Hebamme
TTITLE8=71 Das Geheimnis der Hebamme
TTITLE9=72 Das Geheimnis der Hebamme
TTITLE10=73 Das Geheimnis der Hebamme
TTITLE11=74 Das Geheimnis der Hebamme
TTITLE12=75 Das Geheimnis der Hebamme
TTITLE13=76 Das Geheimnis der Hebamme
TTITLE14=77 Das Geheimnis der Hebamme
TTITLE15=78 Das Geheimnis der Hebamme
TTITLE16=79 Das Geheimnis der Hebamme
TTITLE17=80 Das Geheimnis der Hebamme
TTITLE18=81 Das Geheimnis der Hebamme
TTITLE19=CD5 einlegen
EXTD=gelesen von Julia Fischer
EXTT0=
EXTT1=
EXTT2=
EXTT3=
EXTT4=
EXTT5=
EXTT6=
EXTT7=
EXTT8=
EXTT9=
EXTT10=
EXTT11=
EXTT12=
EXTT13=
EXTT14=
EXTT15=
EXTT16=
EXTT17=
EXTT18=
EXTT19=
PLAYORDER=
